<mxfile host="app.diagrams.net" modified="2022-09-19T15:20:17.170Z" agent="5.0 (Windows NT 10.0; Win64; x64) AppleWebKit/537.36 (KHTML, like Gecko) Chrome/105.0.0.0 Safari/537.36" etag="pCLT5S3rLKrYH_SRLM9k" version="20.3.3" type="github">
  <diagram id="C5RBs43oDa-KdzZeNtuy" name="Page-1">
    <mxGraphModel dx="868" dy="1651" grid="1" gridSize="10" guides="1" tooltips="1" connect="1" arrows="1" fold="1" page="1" pageScale="1" pageWidth="827" pageHeight="1169" math="0" shadow="0">
      <root>
        <mxCell id="WIyWlLk6GJQsqaUBKTNV-0" />
        <mxCell id="WIyWlLk6GJQsqaUBKTNV-1" parent="WIyWlLk6GJQsqaUBKTNV-0" />
        <object label="" id="eVMyCvsAMH2Q6Yi4hce6-4">
          <mxCell style="verticalLabelPosition=bottom;verticalAlign=top;html=1;shape=card;whiteSpace=wrap;size=20;arcSize=12;" vertex="1" parent="WIyWlLk6GJQsqaUBKTNV-1">
            <mxGeometry x="110" y="-100" width="270" height="60" as="geometry" />
          </mxCell>
        </object>
        <mxCell id="WIyWlLk6GJQsqaUBKTNV-2" value="" style="rounded=0;html=1;jettySize=auto;orthogonalLoop=1;fontSize=11;endArrow=block;endFill=0;endSize=8;strokeWidth=1;shadow=0;labelBackgroundColor=none;edgeStyle=orthogonalEdgeStyle;" parent="WIyWlLk6GJQsqaUBKTNV-1" edge="1">
          <mxGeometry relative="1" as="geometry">
            <mxPoint x="240" y="-120" as="sourcePoint" />
            <mxPoint x="240.5" y="-100" as="targetPoint" />
            <Array as="points">
              <mxPoint x="240" y="-140" />
              <mxPoint x="240" y="-140" />
            </Array>
          </mxGeometry>
        </mxCell>
        <mxCell id="WIyWlLk6GJQsqaUBKTNV-5" value="V" style="edgeStyle=orthogonalEdgeStyle;rounded=0;html=1;jettySize=auto;orthogonalLoop=1;fontSize=11;endArrow=block;endFill=0;endSize=8;strokeWidth=1;shadow=0;labelBackgroundColor=none;" parent="WIyWlLk6GJQsqaUBKTNV-1" source="WIyWlLk6GJQsqaUBKTNV-6" target="WIyWlLk6GJQsqaUBKTNV-7" edge="1">
          <mxGeometry y="10" relative="1" as="geometry">
            <mxPoint as="offset" />
          </mxGeometry>
        </mxCell>
        <mxCell id="eVMyCvsAMH2Q6Yi4hce6-17" style="edgeStyle=orthogonalEdgeStyle;rounded=0;orthogonalLoop=1;jettySize=auto;html=1;entryX=0.5;entryY=0;entryDx=0;entryDy=0;" edge="1" parent="WIyWlLk6GJQsqaUBKTNV-1" source="WIyWlLk6GJQsqaUBKTNV-6" target="WIyWlLk6GJQsqaUBKTNV-10">
          <mxGeometry relative="1" as="geometry" />
        </mxCell>
        <mxCell id="WIyWlLk6GJQsqaUBKTNV-6" value="&amp;lt;1903,98&lt;br&gt;Aliquota = 0" style="rhombus;whiteSpace=wrap;html=1;shadow=0;fontFamily=Helvetica;fontSize=12;align=center;strokeWidth=1;spacing=6;spacingTop=-4;" parent="WIyWlLk6GJQsqaUBKTNV-1" vertex="1">
          <mxGeometry x="30" y="220" width="200" height="80" as="geometry" />
        </mxCell>
        <mxCell id="eVMyCvsAMH2Q6Yi4hce6-38" value="" style="edgeStyle=orthogonalEdgeStyle;rounded=0;orthogonalLoop=1;jettySize=auto;html=1;" edge="1" parent="WIyWlLk6GJQsqaUBKTNV-1" source="WIyWlLk6GJQsqaUBKTNV-7" target="eVMyCvsAMH2Q6Yi4hce6-36">
          <mxGeometry relative="1" as="geometry" />
        </mxCell>
        <mxCell id="WIyWlLk6GJQsqaUBKTNV-7" value="ImpostoPagar = RendaLiquida * Aliquota" style="rounded=0;whiteSpace=wrap;html=1;fontSize=12;glass=0;strokeWidth=1;shadow=0;" parent="WIyWlLk6GJQsqaUBKTNV-1" vertex="1">
          <mxGeometry x="370" y="380" width="250" height="70" as="geometry" />
        </mxCell>
        <mxCell id="eVMyCvsAMH2Q6Yi4hce6-19" style="edgeStyle=orthogonalEdgeStyle;rounded=0;orthogonalLoop=1;jettySize=auto;html=1;exitX=1;exitY=0.5;exitDx=0;exitDy=0;entryX=0;entryY=0.5;entryDx=0;entryDy=0;" edge="1" parent="WIyWlLk6GJQsqaUBKTNV-1" source="WIyWlLk6GJQsqaUBKTNV-10" target="WIyWlLk6GJQsqaUBKTNV-7">
          <mxGeometry relative="1" as="geometry" />
        </mxCell>
        <mxCell id="eVMyCvsAMH2Q6Yi4hce6-21" style="edgeStyle=orthogonalEdgeStyle;rounded=0;orthogonalLoop=1;jettySize=auto;html=1;entryX=0.5;entryY=0;entryDx=0;entryDy=0;" edge="1" parent="WIyWlLk6GJQsqaUBKTNV-1" source="WIyWlLk6GJQsqaUBKTNV-10" target="eVMyCvsAMH2Q6Yi4hce6-20">
          <mxGeometry relative="1" as="geometry">
            <mxPoint x="115" y="470" as="targetPoint" />
          </mxGeometry>
        </mxCell>
        <mxCell id="WIyWlLk6GJQsqaUBKTNV-10" value="1803,99 &amp;gt; = 2826.65&lt;br&gt;Aliquota = 7.5/100" style="rhombus;whiteSpace=wrap;html=1;shadow=0;fontFamily=Helvetica;fontSize=12;align=center;strokeWidth=1;spacing=6;spacingTop=-4;" parent="WIyWlLk6GJQsqaUBKTNV-1" vertex="1">
          <mxGeometry x="10" y="360" width="210" height="80" as="geometry" />
        </mxCell>
        <mxCell id="eVMyCvsAMH2Q6Yi4hce6-0" value="&lt;font style=&quot;vertical-align: inherit;&quot;&gt;&lt;font style=&quot;vertical-align: inherit;&quot;&gt;inicio&lt;/font&gt;&lt;/font&gt;" style="ellipse;whiteSpace=wrap;html=1;" vertex="1" parent="WIyWlLk6GJQsqaUBKTNV-1">
          <mxGeometry x="185" y="-190" width="120" height="50" as="geometry" />
        </mxCell>
        <mxCell id="eVMyCvsAMH2Q6Yi4hce6-7" style="edgeStyle=orthogonalEdgeStyle;rounded=0;orthogonalLoop=1;jettySize=auto;html=1;exitX=0.5;exitY=1;exitDx=0;exitDy=0;" edge="1" parent="WIyWlLk6GJQsqaUBKTNV-1" source="eVMyCvsAMH2Q6Yi4hce6-5">
          <mxGeometry relative="1" as="geometry">
            <mxPoint x="240" y="10" as="targetPoint" />
            <Array as="points">
              <mxPoint x="240" y="-40" />
            </Array>
          </mxGeometry>
        </mxCell>
        <mxCell id="eVMyCvsAMH2Q6Yi4hce6-5" value="nome, cpf, num_dependentes, renda_anual" style="text;whiteSpace=wrap;html=1;" vertex="1" parent="WIyWlLk6GJQsqaUBKTNV-1">
          <mxGeometry x="130" y="-80" width="240" height="40" as="geometry" />
        </mxCell>
        <mxCell id="eVMyCvsAMH2Q6Yi4hce6-10" style="edgeStyle=orthogonalEdgeStyle;rounded=0;orthogonalLoop=1;jettySize=auto;html=1;" edge="1" parent="WIyWlLk6GJQsqaUBKTNV-1" source="eVMyCvsAMH2Q6Yi4hce6-8" target="eVMyCvsAMH2Q6Yi4hce6-11">
          <mxGeometry relative="1" as="geometry">
            <mxPoint x="250" y="130" as="targetPoint" />
          </mxGeometry>
        </mxCell>
        <mxCell id="eVMyCvsAMH2Q6Yi4hce6-8" value="" style="rounded=0;whiteSpace=wrap;html=1;" vertex="1" parent="WIyWlLk6GJQsqaUBKTNV-1">
          <mxGeometry x="60" y="20" width="380" height="60" as="geometry" />
        </mxCell>
        <mxCell id="eVMyCvsAMH2Q6Yi4hce6-9" value="&lt;div style=&quot;text-align: center;&quot;&gt;RendaLiquida = renda_anual - (num_dependentes * 110)&lt;/div&gt;" style="text;whiteSpace=wrap;html=1;" vertex="1" parent="WIyWlLk6GJQsqaUBKTNV-1">
          <mxGeometry x="90" y="30" width="350" height="40" as="geometry" />
        </mxCell>
        <mxCell id="eVMyCvsAMH2Q6Yi4hce6-13" style="edgeStyle=orthogonalEdgeStyle;rounded=0;orthogonalLoop=1;jettySize=auto;html=1;" edge="1" parent="WIyWlLk6GJQsqaUBKTNV-1" source="eVMyCvsAMH2Q6Yi4hce6-11" target="WIyWlLk6GJQsqaUBKTNV-6">
          <mxGeometry relative="1" as="geometry" />
        </mxCell>
        <mxCell id="eVMyCvsAMH2Q6Yi4hce6-11" value="" style="shape=parallelogram;perimeter=parallelogramPerimeter;whiteSpace=wrap;html=1;fixedSize=1;" vertex="1" parent="WIyWlLk6GJQsqaUBKTNV-1">
          <mxGeometry x="150" y="110" width="200" height="60" as="geometry" />
        </mxCell>
        <mxCell id="eVMyCvsAMH2Q6Yi4hce6-12" value="&lt;div style=&quot;text-align: center;&quot;&gt;&lt;span style=&quot;background-color: initial;&quot;&gt;RendaLiquida&lt;/span&gt;&lt;/div&gt;" style="text;whiteSpace=wrap;html=1;" vertex="1" parent="WIyWlLk6GJQsqaUBKTNV-1">
          <mxGeometry x="200" y="120" width="90" height="40" as="geometry" />
        </mxCell>
        <mxCell id="eVMyCvsAMH2Q6Yi4hce6-16" value="F" style="text;html=1;align=center;verticalAlign=middle;resizable=0;points=[];autosize=1;strokeColor=none;fillColor=none;" vertex="1" parent="WIyWlLk6GJQsqaUBKTNV-1">
          <mxGeometry x="130" y="330" width="30" height="30" as="geometry" />
        </mxCell>
        <mxCell id="eVMyCvsAMH2Q6Yi4hce6-18" value="V" style="text;html=1;align=center;verticalAlign=middle;resizable=0;points=[];autosize=1;strokeColor=none;fillColor=none;" vertex="1" parent="WIyWlLk6GJQsqaUBKTNV-1">
          <mxGeometry x="300" y="370" width="30" height="30" as="geometry" />
        </mxCell>
        <mxCell id="eVMyCvsAMH2Q6Yi4hce6-22" style="edgeStyle=orthogonalEdgeStyle;rounded=0;orthogonalLoop=1;jettySize=auto;html=1;entryX=0;entryY=1;entryDx=0;entryDy=0;" edge="1" parent="WIyWlLk6GJQsqaUBKTNV-1" source="eVMyCvsAMH2Q6Yi4hce6-20" target="WIyWlLk6GJQsqaUBKTNV-7">
          <mxGeometry relative="1" as="geometry">
            <mxPoint x="430" y="545" as="targetPoint" />
          </mxGeometry>
        </mxCell>
        <mxCell id="eVMyCvsAMH2Q6Yi4hce6-26" style="edgeStyle=orthogonalEdgeStyle;rounded=0;orthogonalLoop=1;jettySize=auto;html=1;" edge="1" parent="WIyWlLk6GJQsqaUBKTNV-1" source="eVMyCvsAMH2Q6Yi4hce6-20" target="eVMyCvsAMH2Q6Yi4hce6-25">
          <mxGeometry relative="1" as="geometry" />
        </mxCell>
        <mxCell id="eVMyCvsAMH2Q6Yi4hce6-20" value="2826.66 &amp;gt; = 3751.05&lt;br&gt;Aliquota = 15/100" style="rhombus;whiteSpace=wrap;html=1;shadow=0;fontFamily=Helvetica;fontSize=12;align=center;strokeWidth=1;spacing=6;spacingTop=-4;" vertex="1" parent="WIyWlLk6GJQsqaUBKTNV-1">
          <mxGeometry x="10" y="480" width="210" height="80" as="geometry" />
        </mxCell>
        <mxCell id="eVMyCvsAMH2Q6Yi4hce6-23" value="F" style="text;html=1;align=center;verticalAlign=middle;resizable=0;points=[];autosize=1;strokeColor=none;fillColor=none;" vertex="1" parent="WIyWlLk6GJQsqaUBKTNV-1">
          <mxGeometry x="120" y="450" width="30" height="30" as="geometry" />
        </mxCell>
        <mxCell id="eVMyCvsAMH2Q6Yi4hce6-24" value="V" style="text;html=1;align=center;verticalAlign=middle;resizable=0;points=[];autosize=1;strokeColor=none;fillColor=none;" vertex="1" parent="WIyWlLk6GJQsqaUBKTNV-1">
          <mxGeometry x="320" y="490" width="30" height="30" as="geometry" />
        </mxCell>
        <mxCell id="eVMyCvsAMH2Q6Yi4hce6-28" style="edgeStyle=orthogonalEdgeStyle;rounded=0;orthogonalLoop=1;jettySize=auto;html=1;" edge="1" parent="WIyWlLk6GJQsqaUBKTNV-1" source="eVMyCvsAMH2Q6Yi4hce6-25">
          <mxGeometry relative="1" as="geometry">
            <mxPoint x="380" y="450" as="targetPoint" />
            <Array as="points">
              <mxPoint x="370" y="650" />
              <mxPoint x="370" y="450" />
            </Array>
          </mxGeometry>
        </mxCell>
        <mxCell id="eVMyCvsAMH2Q6Yi4hce6-31" value="" style="edgeStyle=orthogonalEdgeStyle;rounded=0;orthogonalLoop=1;jettySize=auto;html=1;" edge="1" parent="WIyWlLk6GJQsqaUBKTNV-1" source="eVMyCvsAMH2Q6Yi4hce6-25" target="eVMyCvsAMH2Q6Yi4hce6-30">
          <mxGeometry relative="1" as="geometry" />
        </mxCell>
        <mxCell id="eVMyCvsAMH2Q6Yi4hce6-25" value="3751,08 &amp;gt; = 4664.68&lt;br&gt;Aliquota = 22.5/100" style="rhombus;whiteSpace=wrap;html=1;shadow=0;fontFamily=Helvetica;fontSize=12;align=center;strokeWidth=1;spacing=6;spacingTop=-4;" vertex="1" parent="WIyWlLk6GJQsqaUBKTNV-1">
          <mxGeometry x="10" y="610" width="220" height="80" as="geometry" />
        </mxCell>
        <mxCell id="eVMyCvsAMH2Q6Yi4hce6-27" value="F" style="text;html=1;align=center;verticalAlign=middle;resizable=0;points=[];autosize=1;strokeColor=none;fillColor=none;" vertex="1" parent="WIyWlLk6GJQsqaUBKTNV-1">
          <mxGeometry x="120" y="569.5" width="30" height="30" as="geometry" />
        </mxCell>
        <mxCell id="eVMyCvsAMH2Q6Yi4hce6-29" value="V" style="text;html=1;align=center;verticalAlign=middle;resizable=0;points=[];autosize=1;strokeColor=none;fillColor=none;" vertex="1" parent="WIyWlLk6GJQsqaUBKTNV-1">
          <mxGeometry x="320" y="620" width="30" height="30" as="geometry" />
        </mxCell>
        <mxCell id="eVMyCvsAMH2Q6Yi4hce6-32" style="edgeStyle=orthogonalEdgeStyle;rounded=0;orthogonalLoop=1;jettySize=auto;html=1;" edge="1" parent="WIyWlLk6GJQsqaUBKTNV-1" source="eVMyCvsAMH2Q6Yi4hce6-30">
          <mxGeometry relative="1" as="geometry">
            <mxPoint x="380" y="450" as="targetPoint" />
            <Array as="points">
              <mxPoint x="370" y="760" />
              <mxPoint x="370" y="450" />
            </Array>
          </mxGeometry>
        </mxCell>
        <mxCell id="eVMyCvsAMH2Q6Yi4hce6-30" value="&amp;nbsp;&amp;gt; = 4664.68&lt;br&gt;Aliquota = 27.5/100" style="rhombus;whiteSpace=wrap;html=1;shadow=0;fontFamily=Helvetica;fontSize=12;align=center;strokeWidth=1;spacing=6;spacingTop=-4;" vertex="1" parent="WIyWlLk6GJQsqaUBKTNV-1">
          <mxGeometry x="10" y="720" width="220" height="80" as="geometry" />
        </mxCell>
        <mxCell id="eVMyCvsAMH2Q6Yi4hce6-34" value="V" style="text;html=1;align=center;verticalAlign=middle;resizable=0;points=[];autosize=1;strokeColor=none;fillColor=none;" vertex="1" parent="WIyWlLk6GJQsqaUBKTNV-1">
          <mxGeometry x="320" y="730" width="30" height="30" as="geometry" />
        </mxCell>
        <mxCell id="eVMyCvsAMH2Q6Yi4hce6-35" value="F" style="text;html=1;align=center;verticalAlign=middle;resizable=0;points=[];autosize=1;strokeColor=none;fillColor=none;" vertex="1" parent="WIyWlLk6GJQsqaUBKTNV-1">
          <mxGeometry x="130" y="690" width="30" height="30" as="geometry" />
        </mxCell>
        <mxCell id="eVMyCvsAMH2Q6Yi4hce6-36" value="&lt;br&gt;nome, cpf, num_dependentes, renda_anual, ImpostoPagar&amp;nbsp;" style="shape=document;whiteSpace=wrap;html=1;boundedLbl=1;rounded=1;" vertex="1" parent="WIyWlLk6GJQsqaUBKTNV-1">
          <mxGeometry x="690" y="390" width="330" height="80" as="geometry" />
        </mxCell>
      </root>
    </mxGraphModel>
  </diagram>
</mxfile>
